<svg xmlns="http://www.w3.org/2000/svg" viewBox="0 0 1423.18 708.54"><defs><style>.a{fill:#58387d;}.b{fill:#58377d;}</style></defs><title>BAT</title><path class="a" d="M623.62,708.54v-322h4.93c39.31,0,78.63-.07,117.94,0,19.07,0,37.95,1.77,55.81,9.11,47.38,19.48,64,78.79,33.21,118-7.54,9.59-17.19,16.59-28.36,22.43a13.44,13.44,0,0,0,2.28,1.37c57,18.35,67.35,73.63,49.58,115.86-12.53,29.78-36,45.16-66.62,51.11-7.17,1.39-14.48,2.06-21.72,3.12a8,8,0,0,0-2.05.94Zm42.92-38c4.3,0,8.42,0,12.54,0,30.47-.31,61,.46,91.4-1.28,27.84-1.6,47.84-16.5,51.65-46.72,3.39-26.91-10-52.79-40.08-58.88a220.13,220.13,0,0,0-38.13-3.91c-24.14-.6-48.31-.17-72.46-.17h-4.93Zm0-149c22.78,0,45.08.21,67.37-.09a318.07,318.07,0,0,0,34.37-2c25.37-3.11,39.67-19,40.82-44.23C810.2,451.58,797,433,775.32,428a82.3,82.3,0,0,0-16.78-2.35c-29.81-.54-59.62-.76-89.43-1.07a20.53,20.53,0,0,0-2.56.31Z"/><path class="a" d="M890.62,708.54a30.2,30.2,0,0,1,1-4.68q60.25-156.64,120.48-313.28c1.23-3.21,2.71-4.18,6.08-4.12,12.16.22,24.33.26,36.49,0,3.76-.09,5.5,1.06,6.92,4.54q62.34,152.6,124.9,305.11,2.55,6.23,5.13,12.45h-49c-3.68-9.79-7.3-19.61-11-29.38q-13.09-34.2-26.26-68.36c-.9-.09-1.55-.22-2.21-.22q-64.48,0-129-.1c-3,0-3.88,1.35-4.74,3.77-6.22,17.37-12.61,34.68-18.85,52-5.05,14.06-10,28.16-14.94,42.24Zm144.49-285.27c-5.26,26-13.7,51.35-23.33,76.32s-18.95,50.31-28.51,75.77h108Z"/><path class="b" d="M1274.62,708.54c-.09-2-.27-4-.27-6q0-135.72,0-271.44v-6.38H1168.39v-38h254.78v37.56H1316.84v6.26q0,136,0,271.94c0,2-.14,4-.21,6Z"/><path class="a" d="M644.8,323.6c-16.88-22.58-38-37.48-65.95-40.86-12.92-1.56-25.54,0-37.49,5.78,2.27,10.65,4.91,21,6.61,31.41,5,30.69,4.65,61.11-6.39,90.68-5.81,15.57-14.42,29.37-27.77,39.6-22.36,17.12-47,18.11-72.45,8.65-26.93-10-47.89-28.18-65-50.66-10.63-14-19.58-29.26-29.54-44.33-46.43,15.16-61.77,50.92-59.65,98-1.21-.45-2.43-.8-3.57-1.34-44.5-21.06-93.38-4.36-116,39.65-2.41,4.7-3.84,5-7,1-38.46-48.47-89.31-76.34-148.9-89.73-2.44-.55-4.9-1-7.33-1.55-4.89-1.11-5.51-2.55-2.73-6.82A148.13,148.13,0,0,0,20,363.32a136.69,136.69,0,0,0-2.74-85.93c-.66-1.86.06-4.21.14-6.33,1.79.3,3.77.19,5.34.95,38.2,18.38,78.77,28.79,120.4,35.38,61,9.66,122.37,10.86,183.9,6.21.81-.06,1.61-.23,3.09-.45-8.18-37.76-10.17-75.15,4.73-112.7,7.49,9,14.36,17.27,21.28,25.52,3.3,3.93,6.09,10,10.19,11.07s9.54-2.63,14.3-4.5c19.53-7.66,39-15.53,58.58-23,3.74-1.43,4.52-3.31,4.23-7-1.12-14.09-1.93-28.2-2.91-43.28,35.51,17.26,59.14,45.25,78.69,78.32,6.7-5.49,13.17-10.65,19.49-16C589,179.13,634.61,132.42,671.87,78c15.94-23.3,29.82-47.75,40.24-74.07.58-1.48,2-2.61,3.09-3.9,1.44,1.38,3.53,2.5,4.23,4.19,11.71,28.38,30.47,50.91,57.1,66,11.9,6.76,25.15,11.26,38,16.16,6.78,2.59,7.34,2.86,3.12,8.6-25.87,35.2-43.47,74-50.6,117.25a238.13,238.13,0,0,0-2.29,54.31c.32,5-.83,5.88-5.32,4.16-46.58-17.91-97,4.45-113.53,50.77A22.57,22.57,0,0,1,644.8,323.6ZM451.35,259.67c.66,7.19,3.93,14.6,11.72,19.22,6.41,3.8,12.56.79,13.66-6.59,1.31-8.75-1.92-16-8.19-22-3.27-3.1-7.22-5.18-11.79-3.16S451.36,253.56,451.35,259.67Zm-72,26.6a24.1,24.1,0,0,0,11.22,19.34c6.71,4.29,13.18,1.18,14.22-6.72,1.12-8.56-2.08-15.68-8.19-21.5-3.26-3.11-7.21-5.21-11.78-3.25S379.36,280.47,379.35,286.27Z"/></svg>